<?xml version="1.0" encoding="utf-8"?>
<!-- Generator: Adobe Illustrator 28.3.0, SVG Export Plug-In . SVG Version: 6.00 Build 0)  -->
<svg version="1.1" id="Layer_1" xmlns="http://www.w3.org/2000/svg" xmlns:xlink="http://www.w3.org/1999/xlink" x="0px" y="0px"
	 viewBox="0 0 512 512" style="enable-background:new 0 0 512 512;" xml:space="preserve">
<style type="text/css">
	.st0{fill:#FFFFFF;}
</style>
<g id="Layer_2">
</g>
<g transform="translate(0,0)">
	<path class="st0" d="M50.8,347.8h82.9v-14.9H50.8L50.8,347.8z M290.3,191.3v-44.5l14.9-0.7v60.1H198c1.9-4.7,3.9-10.2,5.8-14.9
		H290.3z M421.7,24.4l13.5,8.5h-13.5V24.4z M72.2,24.5h14v8.4h-14L72.2,24.5z M234.7,149.4c0.2,8.5,2.2,19.4,9.6,29.3
		c-9-1.9-20.5-12.7-27.6-20.3c1.2-3.1,2.3-5.9,3.3-8.3L234.7,149.4z M113.2,92.5V47.8h14.9v44.7H113.2z M172.9,92.5V47.8h14.9v44.7
		H172.9z M63.9,92.5V47.8h34.5v44.7H63.9z M143.1,92.5V47.8H158v44.7H143.1z M87.8,151.3c0.4-11.2-13.2-30.1-27.9-30.1
		c-18.9,0-10.5-7.3-1.2-13.8h380.6v17.2l-229.5,11.1c-4.5,10.5-20.5,51.4-32.8,83.2l4.3,9.3l-8.6,1.7c-3.1,8.2-10.4,26.8-13.4,34.7
		l3.3,8.8l-7.5,2.7C144,305.2,139.3,318,139.3,318H48.9c0,0-24.8-8.1-24.8-15.3C24.1,263,86.7,183.8,87.8,151.3z M202.7,47.8h236.7
		v44.7H202.7V47.8z"/>
</g>
<g transform="translate(0,0)">
	<path class="st0" d="M104.8,451.2l28.1,36.4l26.4-20.4l-28.1-36.4L104.8,451.2L104.8,451.2z M149.7,432.2l12,15.5
		c25-10,52.4-30.8,68.7-51.2l-13.8-17.9C192.3,389.6,165.5,411.1,149.7,432.2L149.7,432.2z M195.7,329.2l81,104.7l11-8.5l-81-104.7
		L195.7,329.2z M231.8,330.2l47.7,61.7l9.9-7.6c-3.1-4.2-4.2-9.3-3.6-14.2c0.6-5,3.2-9.8,7.5-13.2c8.5-6.6,20.7-5.2,27.5,3.1
		L430,275.5c28.9-22.4,65.5-60.9,61.9-97.2c-17.7,15.1-85.5,49.7-113.4,38.7l1.5,30.4l-28.5-9.3l1.4,30.3l-28.1-9.6l1.8,30
		l-28.5-9.3l1.4,30.3l-28.9-9.4L231.8,330.2L231.8,330.2z"/>
</g>
</svg>
